# xmcd
#
# Track frame offsets:
#	150
#	58325
#	85761
#	122097
#	153097
#	224762
#	254956
#
# Disc length: 4001 seconds
#
# Revision: 1
# Processed by: cddbd v1.5.2PL0 Copyright (c) Steve Scherf et al.
# Submitted via: audiograbber 1.83.01
#
DISCID=690f9f07
DTITLE=Syndromeda - Attack!
DYEAR=2006
DGENRE=Electronic
TTITLE0=A New Journey
TTITLE1=Akkefietje
TTITLE2=Berliner Bratwurst
TTITLE3=Everybody
TTITLE4=Time for Peace
TTITLE5=ToDaRe
TTITLE6=Vaporized Earth
EXTD=
EXTT0=
EXTT1=
EXTT2=
EXTT3=
EXTT4=
EXTT5=
EXTT6=
PLAYORDER=
